<?xml version="1.0" encoding="UTF-8"?>
<svg xmlns="http://www.w3.org/2000/svg" xmlns:xlink="http://www.w3.org/1999/xlink" width="255" height="57" viewBox="0 0 255 57">
<defs>
<g>
<g id="glyph-0-0">
<path d="M 1.515625 -10.4375 L 9.859375 -10.4375 L 9.859375 0 L 1.515625 0 Z M 2.078125 -9.875 L 2.078125 -0.5625 L 9.296875 -0.5625 L 9.296875 -9.875 Z M 2.078125 -9.875 "/>
</g>
<g id="glyph-0-1">
<path d="M 5.96875 -1.5625 C 6.539062 -1.5625 7.09375 -1.644531 7.625 -1.8125 C 8.15625 -1.976562 8.566406 -2.1875 8.859375 -2.4375 L 8.859375 -3.890625 L 6.3125 -3.890625 L 6.3125 -5.5 L 10.859375 -5.5 L 10.859375 -1.671875 C 10.304688 -1.097656 9.585938 -0.648438 8.703125 -0.328125 C 7.816406 -0.015625 6.882812 0.140625 5.90625 0.140625 C 4.207031 0.140625 2.898438 -0.328125 1.984375 -1.265625 C 1.078125 -2.203125 0.625 -3.535156 0.625 -5.265625 C 0.625 -6.984375 1.082031 -8.300781 2 -9.21875 C 2.914062 -10.132812 4.238281 -10.59375 5.96875 -10.59375 C 8.414062 -10.59375 9.972656 -9.6875 10.640625 -7.875 L 8.625 -7.265625 C 8.40625 -7.796875 8.0625 -8.195312 7.59375 -8.46875 C 7.132812 -8.738281 6.59375 -8.875 5.96875 -8.875 C 4.9375 -8.875 4.15625 -8.5625 3.625 -7.9375 C 3.09375 -7.320312 2.828125 -6.429688 2.828125 -5.265625 C 2.828125 -4.085938 3.097656 -3.175781 3.640625 -2.53125 C 4.191406 -1.882812 4.96875 -1.5625 5.96875 -1.5625 Z M 5.96875 -1.5625 "/>
</g>
<g id="glyph-0-2">
<path d="M 1.015625 0 L 1.015625 -10.4375 L 9.21875 -10.4375 L 9.21875 -8.75 L 3.203125 -8.75 L 3.203125 -6.125 L 8.765625 -6.125 L 8.765625 -4.4375 L 3.203125 -4.4375 L 3.203125 -1.6875 L 9.53125 -1.6875 L 9.53125 0 Z M 1.015625 0 "/>
</g>
<g id="glyph-0-3">
<path d="M 7.375 0 L 2.828125 -8.03125 C 2.910156 -7.257812 2.953125 -6.632812 2.953125 -6.15625 L 2.953125 0 L 1.015625 0 L 1.015625 -10.4375 L 3.515625 -10.4375 L 8.125 -2.328125 C 8.039062 -3.078125 8 -3.757812 8 -4.375 L 8 -10.4375 L 9.9375 -10.4375 L 9.9375 0 Z M 7.375 0 "/>
</g>
<g id="glyph-0-4">
<path d="M 8.1875 0 L 5.765625 -3.96875 L 3.203125 -3.96875 L 3.203125 0 L 1.015625 0 L 1.015625 -10.4375 L 6.234375 -10.4375 C 7.472656 -10.4375 8.429688 -10.164062 9.109375 -9.625 C 9.785156 -9.09375 10.125 -8.328125 10.125 -7.328125 C 10.125 -6.597656 9.914062 -5.96875 9.5 -5.4375 C 9.082031 -4.90625 8.523438 -4.554688 7.828125 -4.390625 L 10.640625 0 Z M 7.921875 -7.234375 C 7.921875 -8.234375 7.28125 -8.734375 6 -8.734375 L 3.203125 -8.734375 L 3.203125 -5.65625 L 6.0625 -5.65625 C 6.675781 -5.65625 7.140625 -5.789062 7.453125 -6.0625 C 7.765625 -6.34375 7.921875 -6.734375 7.921875 -7.234375 Z M 7.921875 -7.234375 "/>
</g>
<g id="glyph-0-5">
<path d="M 8.390625 0 L 7.46875 -2.671875 L 3.484375 -2.671875 L 2.5625 0 L 0.375 0 L 4.1875 -10.4375 L 6.765625 -10.4375 L 10.5625 0 Z M 5.46875 -8.828125 L 5.4375 -8.671875 C 5.382812 -8.492188 5.320312 -8.289062 5.25 -8.0625 C 5.1875 -7.832031 4.765625 -6.582031 3.984375 -4.3125 L 6.984375 -4.3125 L 5.953125 -7.3125 L 5.625 -8.3125 Z M 5.46875 -8.828125 "/>
</g>
<g id="glyph-0-6">
<path d="M 1.015625 0 L 1.015625 -10.4375 L 3.203125 -10.4375 L 3.203125 -1.6875 L 8.796875 -1.6875 L 8.796875 0 Z M 1.015625 0 "/>
</g>
<g id="glyph-0-7">
</g>
<g id="glyph-0-8">
<path d="M 11.171875 -5.265625 C 11.171875 -4.179688 10.953125 -3.222656 10.515625 -2.390625 C 10.085938 -1.566406 9.472656 -0.9375 8.671875 -0.5 C 7.867188 -0.0703125 6.9375 0.140625 5.875 0.140625 C 4.238281 0.140625 2.953125 -0.335938 2.015625 -1.296875 C 1.085938 -2.265625 0.625 -3.585938 0.625 -5.265625 C 0.625 -6.941406 1.085938 -8.25 2.015625 -9.1875 C 2.941406 -10.125 4.234375 -10.59375 5.890625 -10.59375 C 7.546875 -10.59375 8.835938 -10.117188 9.765625 -9.171875 C 10.703125 -8.222656 11.171875 -6.921875 11.171875 -5.265625 Z M 8.9375 -5.265625 C 8.9375 -6.390625 8.664062 -7.269531 8.125 -7.90625 C 7.59375 -8.550781 6.847656 -8.875 5.890625 -8.875 C 4.910156 -8.875 4.15625 -8.554688 3.625 -7.921875 C 3.09375 -7.285156 2.828125 -6.398438 2.828125 -5.265625 C 2.828125 -4.117188 3.097656 -3.21875 3.640625 -2.5625 C 4.179688 -1.90625 4.925781 -1.578125 5.875 -1.578125 C 6.851562 -1.578125 7.609375 -1.894531 8.140625 -2.53125 C 8.671875 -3.175781 8.9375 -4.085938 8.9375 -5.265625 Z M 8.9375 -5.265625 "/>
</g>
<g id="glyph-0-9">
<path d="M 5.71875 -8.75 L 5.71875 0 L 3.546875 0 L 3.546875 -8.75 L 0.171875 -8.75 L 0.171875 -10.4375 L 9.109375 -10.4375 L 9.109375 -8.75 Z M 5.71875 -8.75 "/>
</g>
<g id="glyph-0-10">
<path d="M 6.15625 -4.28125 L 6.15625 0 L 3.984375 0 L 3.984375 -4.28125 L 0.265625 -10.4375 L 2.546875 -10.4375 L 5.046875 -6.015625 L 7.59375 -10.4375 L 9.875 -10.4375 Z M 6.15625 -4.28125 "/>
</g>
<g id="glyph-1-0">
<path d="M 1.78125 -12.265625 L 11.578125 -12.265625 L 11.578125 0 L 1.78125 0 Z M 2.453125 -11.609375 L 2.453125 -0.65625 L 10.921875 -0.65625 L 10.921875 -11.609375 Z M 2.453125 -11.609375 "/>
</g>
<g id="glyph-1-1">
<path d="M 11.375 0 L 11.375 -7.4375 C 11.375 -7.601562 11.375 -7.769531 11.375 -7.9375 C 11.382812 -8.101562 11.414062 -8.828125 11.46875 -10.109375 C 11.050781 -8.546875 10.742188 -7.457031 10.546875 -6.84375 L 8.34375 0 L 6.515625 0 L 4.296875 -6.84375 L 3.375 -10.109375 C 3.4375 -8.765625 3.46875 -7.875 3.46875 -7.4375 L 3.46875 0 L 1.1875 0 L 1.1875 -12.265625 L 4.625 -12.265625 L 6.828125 -5.40625 L 7.015625 -4.75 L 7.4375 -3.09375 L 7.984375 -5.0625 L 10.234375 -12.265625 L 13.65625 -12.265625 L 13.65625 0 Z M 11.375 0 "/>
</g>
<g id="glyph-1-2">
<path d="M 1.203125 0 L 1.203125 -2.65625 L 3.71875 -2.65625 L 3.71875 0 Z M 1.203125 0 "/>
</g>
<g id="glyph-1-3">
</g>
<g id="glyph-1-4">
<path d="M 12.125 -6.21875 C 12.125 -4.957031 11.875 -3.851562 11.375 -2.90625 C 10.882812 -1.96875 10.179688 -1.25 9.265625 -0.75 C 8.359375 -0.25 7.320312 0 6.15625 0 L 1.1875 0 L 1.1875 -12.265625 L 5.625 -12.265625 C 7.695312 -12.265625 9.296875 -11.742188 10.421875 -10.703125 C 11.554688 -9.660156 12.125 -8.164062 12.125 -6.21875 Z M 9.546875 -6.21875 C 9.546875 -7.539062 9.203125 -8.546875 8.515625 -9.234375 C 7.828125 -9.929688 6.847656 -10.28125 5.578125 -10.28125 L 3.765625 -10.28125 L 3.765625 -1.984375 L 5.9375 -1.984375 C 7.039062 -1.984375 7.914062 -2.363281 8.5625 -3.125 C 9.21875 -3.882812 9.546875 -4.914062 9.546875 -6.21875 Z M 9.546875 -6.21875 "/>
</g>
<g id="glyph-1-5">
<path d="M 13.125 -6.1875 C 13.125 -4.914062 12.867188 -3.789062 12.359375 -2.8125 C 11.859375 -1.84375 11.132812 -1.101562 10.1875 -0.59375 C 9.25 -0.0820312 8.15625 0.171875 6.90625 0.171875 C 4.976562 0.171875 3.46875 -0.394531 2.375 -1.53125 C 1.28125 -2.664062 0.734375 -4.21875 0.734375 -6.1875 C 0.734375 -8.15625 1.273438 -9.691406 2.359375 -10.796875 C 3.453125 -11.898438 4.972656 -12.453125 6.921875 -12.453125 C 8.867188 -12.453125 10.390625 -11.894531 11.484375 -10.78125 C 12.578125 -9.664062 13.125 -8.132812 13.125 -6.1875 Z M 10.5 -6.1875 C 10.5 -7.507812 10.1875 -8.546875 9.5625 -9.296875 C 8.9375 -10.046875 8.054688 -10.421875 6.921875 -10.421875 C 5.773438 -10.421875 4.882812 -10.046875 4.25 -9.296875 C 3.625 -8.554688 3.3125 -7.519531 3.3125 -6.1875 C 3.3125 -4.84375 3.628906 -3.78125 4.265625 -3 C 4.910156 -2.226562 5.789062 -1.84375 6.90625 -1.84375 C 8.050781 -1.84375 8.9375 -2.21875 9.5625 -2.96875 C 10.1875 -3.726562 10.5 -4.800781 10.5 -6.1875 Z M 10.5 -6.1875 "/>
</g>
<g id="glyph-1-6">
<path d="M 7.234375 -5.03125 L 7.234375 0 L 4.671875 0 L 4.671875 -5.03125 L 0.296875 -12.265625 L 3 -12.265625 L 5.9375 -7.078125 L 8.921875 -12.265625 L 11.609375 -12.265625 Z M 7.234375 -5.03125 "/>
</g>
<g id="glyph-1-7">
<path d="M 1.1875 0 L 1.1875 -12.265625 L 3.765625 -12.265625 L 3.765625 -1.984375 L 10.34375 -1.984375 L 10.34375 0 Z M 1.1875 0 "/>
</g>
<g id="glyph-1-8">
<path d="M 1.1875 0 L 1.1875 -12.265625 L 10.84375 -12.265625 L 10.84375 -10.28125 L 3.765625 -10.28125 L 3.765625 -7.203125 L 10.3125 -7.203125 L 10.3125 -5.21875 L 3.765625 -5.21875 L 3.765625 -1.984375 L 11.1875 -1.984375 L 11.1875 0 Z M 1.1875 0 "/>
</g>
<g id="glyph-2-0">
<path d="M 1.390625 -9.515625 L 8.984375 -9.515625 L 8.984375 0 L 1.390625 0 Z M 1.890625 -9 L 1.890625 -0.515625 L 8.46875 -0.515625 L 8.46875 -9 Z M 1.890625 -9 "/>
</g>
<g id="glyph-2-1">
<path d="M 9.21875 0 L 9.21875 -6.34375 C 9.21875 -7.050781 9.238281 -7.726562 9.28125 -8.375 C 9.0625 -7.5625 8.863281 -6.929688 8.6875 -6.484375 L 6.234375 0 L 5.328125 0 L 2.828125 -6.484375 L 2.453125 -7.625 L 2.234375 -8.375 L 2.25 -7.625 L 2.28125 -6.34375 L 2.28125 0 L 1.140625 0 L 1.140625 -9.515625 L 2.828125 -9.515625 L 5.359375 -2.921875 C 5.453125 -2.648438 5.539062 -2.363281 5.625 -2.0625 C 5.707031 -1.757812 5.757812 -1.539062 5.78125 -1.40625 C 5.820312 -1.582031 5.898438 -1.851562 6.015625 -2.21875 C 6.128906 -2.59375 6.207031 -2.828125 6.25 -2.921875 L 8.734375 -9.515625 L 10.390625 -9.515625 L 10.390625 0 Z M 9.21875 0 "/>
</g>
<g id="glyph-2-2">
<path d="M 1.296875 2.875 C 0.960938 2.875 0.679688 2.847656 0.453125 2.796875 L 0.453125 1.890625 C 0.617188 1.910156 0.804688 1.921875 1.015625 1.921875 C 1.773438 1.921875 2.375 1.363281 2.8125 0.25 L 2.9375 -0.03125 L 0.03125 -7.3125 L 1.328125 -7.3125 L 2.875 -3.265625 C 2.894531 -3.203125 2.921875 -3.125 2.953125 -3.03125 C 2.984375 -2.945312 3.082031 -2.65625 3.25 -2.15625 C 3.425781 -1.65625 3.519531 -1.378906 3.53125 -1.328125 L 4 -2.65625 L 5.609375 -7.3125 L 6.890625 -7.3125 L 4.078125 0 C 3.773438 0.78125 3.492188 1.359375 3.234375 1.734375 C 2.972656 2.117188 2.679688 2.40625 2.359375 2.59375 C 2.046875 2.78125 1.691406 2.875 1.296875 2.875 Z M 1.296875 2.875 "/>
</g>
<g id="glyph-2-3">
</g>
<g id="glyph-2-4">
<path d="M 5.34375 -8.609375 C 4.289062 -8.609375 3.472656 -8.265625 2.890625 -7.578125 C 2.304688 -6.898438 2.015625 -5.972656 2.015625 -4.796875 C 2.015625 -3.628906 2.316406 -2.691406 2.921875 -1.984375 C 3.535156 -1.273438 4.363281 -0.921875 5.40625 -0.921875 C 6.738281 -0.921875 7.738281 -1.582031 8.40625 -2.90625 L 9.453125 -2.375 C 9.066406 -1.550781 8.519531 -0.925781 7.8125 -0.5 C 7.101562 -0.0703125 6.28125 0.140625 5.34375 0.140625 C 4.382812 0.140625 3.550781 -0.0546875 2.84375 -0.453125 C 2.144531 -0.859375 1.613281 -1.429688 1.25 -2.171875 C 0.882812 -2.910156 0.703125 -3.785156 0.703125 -4.796875 C 0.703125 -6.316406 1.109375 -7.503906 1.921875 -8.359375 C 2.742188 -9.222656 3.878906 -9.65625 5.328125 -9.65625 C 6.347656 -9.65625 7.195312 -9.457031 7.875 -9.0625 C 8.550781 -8.664062 9.050781 -8.078125 9.375 -7.296875 L 8.15625 -6.890625 C 7.925781 -7.441406 7.566406 -7.863281 7.078125 -8.15625 C 6.597656 -8.457031 6.019531 -8.609375 5.34375 -8.609375 Z M 5.34375 -8.609375 "/>
</g>
<g id="glyph-2-5">
<path d="M 7.109375 -3.65625 C 7.109375 -2.375 6.828125 -1.421875 6.265625 -0.796875 C 5.703125 -0.171875 4.882812 0.140625 3.8125 0.140625 C 2.75 0.140625 1.941406 -0.179688 1.390625 -0.828125 C 0.847656 -1.484375 0.578125 -2.425781 0.578125 -3.65625 C 0.578125 -6.175781 1.671875 -7.4375 3.859375 -7.4375 C 4.972656 -7.4375 5.789062 -7.128906 6.3125 -6.515625 C 6.84375 -5.898438 7.109375 -4.945312 7.109375 -3.65625 Z M 5.828125 -3.65625 C 5.828125 -4.664062 5.675781 -5.398438 5.375 -5.859375 C 5.082031 -6.316406 4.582031 -6.546875 3.875 -6.546875 C 3.164062 -6.546875 2.648438 -6.3125 2.328125 -5.84375 C 2.015625 -5.375 1.859375 -4.644531 1.859375 -3.65625 C 1.859375 -2.695312 2.015625 -1.972656 2.328125 -1.484375 C 2.640625 -1.003906 3.128906 -0.765625 3.796875 -0.765625 C 4.523438 -0.765625 5.046875 -1 5.359375 -1.46875 C 5.671875 -1.9375 5.828125 -2.664062 5.828125 -3.65625 Z M 5.828125 -3.65625 "/>
</g>
<g id="glyph-2-6">
<path d="M 5.1875 0 L 5.1875 -4.625 C 5.1875 -5.332031 5.085938 -5.820312 4.890625 -6.09375 C 4.703125 -6.363281 4.351562 -6.5 3.84375 -6.5 C 3.332031 -6.5 2.925781 -6.300781 2.625 -5.90625 C 2.320312 -5.507812 2.171875 -4.953125 2.171875 -4.234375 L 2.171875 0 L 0.953125 0 L 0.953125 -5.75 C 0.953125 -6.59375 0.941406 -7.113281 0.921875 -7.3125 L 2.0625 -7.3125 C 2.070312 -7.28125 2.078125 -7.210938 2.078125 -7.109375 C 2.085938 -7.015625 2.09375 -6.90625 2.09375 -6.78125 C 2.101562 -6.65625 2.113281 -6.414062 2.125 -6.0625 L 2.140625 -6.0625 C 2.398438 -6.570312 2.695312 -6.925781 3.03125 -7.125 C 3.375 -7.332031 3.789062 -7.4375 4.28125 -7.4375 C 4.832031 -7.4375 5.265625 -7.328125 5.578125 -7.109375 C 5.898438 -6.890625 6.128906 -6.539062 6.265625 -6.0625 L 6.28125 -6.0625 C 6.53125 -6.550781 6.832031 -6.898438 7.1875 -7.109375 C 7.550781 -7.328125 7.988281 -7.4375 8.5 -7.4375 C 9.226562 -7.4375 9.757812 -7.234375 10.09375 -6.828125 C 10.4375 -6.429688 10.609375 -5.78125 10.609375 -4.875 L 10.609375 0 L 9.40625 0 L 9.40625 -4.625 C 9.40625 -5.332031 9.304688 -5.820312 9.109375 -6.09375 C 8.921875 -6.363281 8.570312 -6.5 8.0625 -6.5 C 7.53125 -6.5 7.117188 -6.300781 6.828125 -5.90625 C 6.535156 -5.519531 6.390625 -4.960938 6.390625 -4.234375 L 6.390625 0 Z M 5.1875 0 "/>
</g>
<g id="glyph-2-7">
<path d="M 1.265625 0 L 1.265625 -1.484375 L 2.578125 -1.484375 L 2.578125 0 Z M 1.265625 0 "/>
</g>
<g id="glyph-2-8">
<path d="M 1.140625 0 L 1.140625 -9.515625 L 8.359375 -9.515625 L 8.359375 -8.453125 L 2.421875 -8.453125 L 2.421875 -5.40625 L 7.953125 -5.40625 L 7.953125 -4.375 L 2.421875 -4.375 L 2.421875 -1.046875 L 8.625 -1.046875 L 8.625 0 Z M 1.140625 0 "/>
</g>
<g id="glyph-2-9">
<path d="M 5.40625 0 L 3.4375 -3 L 1.46875 0 L 0.15625 0 L 2.75 -3.75 L 0.28125 -7.3125 L 1.625 -7.3125 L 3.4375 -4.46875 L 5.25 -7.3125 L 6.609375 -7.3125 L 4.125 -3.765625 L 6.765625 0 Z M 5.40625 0 "/>
</g>
<g id="glyph-2-10">
<path d="M 7.109375 -3.6875 C 7.109375 -1.132812 6.210938 0.140625 4.421875 0.140625 C 3.296875 0.140625 2.539062 -0.285156 2.15625 -1.140625 L 2.125 -1.140625 C 2.132812 -1.097656 2.140625 -0.710938 2.140625 0.015625 L 2.140625 2.875 L 0.9375 2.875 L 0.9375 -5.8125 C 0.9375 -6.5625 0.921875 -7.0625 0.890625 -7.3125 L 2.0625 -7.3125 C 2.070312 -7.289062 2.078125 -7.222656 2.078125 -7.109375 C 2.085938 -7.003906 2.097656 -6.835938 2.109375 -6.609375 C 2.128906 -6.378906 2.140625 -6.21875 2.140625 -6.125 L 2.15625 -6.125 C 2.375 -6.582031 2.660156 -6.914062 3.015625 -7.125 C 3.367188 -7.332031 3.835938 -7.4375 4.421875 -7.4375 C 5.316406 -7.4375 5.988281 -7.132812 6.4375 -6.53125 C 6.882812 -5.925781 7.109375 -4.976562 7.109375 -3.6875 Z M 5.828125 -3.65625 C 5.828125 -4.675781 5.691406 -5.40625 5.421875 -5.84375 C 5.148438 -6.28125 4.710938 -6.5 4.109375 -6.5 C 3.628906 -6.5 3.253906 -6.394531 2.984375 -6.1875 C 2.710938 -5.988281 2.503906 -5.671875 2.359375 -5.234375 C 2.210938 -4.804688 2.140625 -4.25 2.140625 -3.5625 C 2.140625 -2.601562 2.289062 -1.894531 2.59375 -1.4375 C 2.90625 -0.988281 3.40625 -0.765625 4.09375 -0.765625 C 4.695312 -0.765625 5.132812 -0.984375 5.40625 -1.421875 C 5.6875 -1.867188 5.828125 -2.613281 5.828125 -3.65625 Z M 5.828125 -3.65625 "/>
</g>
<g id="glyph-2-11">
<path d="M 2.796875 0.140625 C 2.054688 0.140625 1.503906 -0.0507812 1.140625 -0.4375 C 0.773438 -0.832031 0.59375 -1.367188 0.59375 -2.046875 C 0.59375 -2.796875 0.835938 -3.375 1.328125 -3.78125 C 1.828125 -4.1875 2.628906 -4.398438 3.734375 -4.421875 L 5.375 -4.453125 L 5.375 -4.859375 C 5.375 -5.453125 5.25 -5.875 5 -6.125 C 4.75 -6.382812 4.351562 -6.515625 3.8125 -6.515625 C 3.269531 -6.515625 2.875 -6.421875 2.625 -6.234375 C 2.375 -6.054688 2.226562 -5.765625 2.1875 -5.359375 L 0.90625 -5.46875 C 1.113281 -6.78125 2.09375 -7.4375 3.84375 -7.4375 C 4.757812 -7.4375 5.445312 -7.222656 5.90625 -6.796875 C 6.375 -6.378906 6.609375 -5.773438 6.609375 -4.984375 L 6.609375 -1.84375 C 6.609375 -1.476562 6.65625 -1.203125 6.75 -1.015625 C 6.84375 -0.835938 7.023438 -0.75 7.296875 -0.75 C 7.410156 -0.75 7.539062 -0.765625 7.6875 -0.796875 L 7.6875 -0.046875 C 7.382812 0.0234375 7.070312 0.0625 6.75 0.0625 C 6.300781 0.0625 5.972656 -0.0507812 5.765625 -0.28125 C 5.566406 -0.519531 5.453125 -0.890625 5.421875 -1.390625 L 5.375 -1.390625 C 5.070312 -0.835938 4.710938 -0.441406 4.296875 -0.203125 C 3.890625 0.0234375 3.390625 0.140625 2.796875 0.140625 Z M 3.078125 -0.78125 C 3.515625 -0.78125 3.90625 -0.878906 4.25 -1.078125 C 4.601562 -1.285156 4.878906 -1.5625 5.078125 -1.90625 C 5.273438 -2.257812 5.375 -2.625 5.375 -3 L 5.375 -3.609375 L 4.046875 -3.578125 C 3.472656 -3.566406 3.039062 -3.503906 2.75 -3.390625 C 2.457031 -3.285156 2.234375 -3.117188 2.078125 -2.890625 C 1.921875 -2.671875 1.84375 -2.378906 1.84375 -2.015625 C 1.84375 -1.617188 1.945312 -1.3125 2.15625 -1.09375 C 2.375 -0.882812 2.679688 -0.78125 3.078125 -0.78125 Z M 3.078125 -0.78125 "/>
</g>
<g id="glyph-2-12">
<path d="M 0.953125 0 L 0.953125 -5.609375 C 0.953125 -6.117188 0.941406 -6.6875 0.921875 -7.3125 L 2.0625 -7.3125 C 2.101562 -6.476562 2.125 -5.976562 2.125 -5.8125 L 2.140625 -5.8125 C 2.335938 -6.4375 2.5625 -6.863281 2.8125 -7.09375 C 3.0625 -7.320312 3.414062 -7.4375 3.875 -7.4375 C 4.039062 -7.4375 4.207031 -7.414062 4.375 -7.375 L 4.375 -6.265625 C 4.207031 -6.304688 3.992188 -6.328125 3.734375 -6.328125 C 3.222656 -6.328125 2.832031 -6.109375 2.5625 -5.671875 C 2.300781 -5.242188 2.171875 -4.625 2.171875 -3.8125 L 2.171875 0 Z M 0.953125 0 "/>
</g>
<g id="glyph-2-13">
<path d="M 1.859375 -3.6875 C 1.859375 -2.71875 2.007812 -2 2.3125 -1.53125 C 2.625 -1.0625 3.085938 -0.828125 3.703125 -0.828125 C 4.128906 -0.828125 4.488281 -0.941406 4.78125 -1.171875 C 5.070312 -1.410156 5.253906 -1.769531 5.328125 -2.25 L 6.546875 -2.171875 C 6.453125 -1.472656 6.148438 -0.910156 5.640625 -0.484375 C 5.140625 -0.0664062 4.503906 0.140625 3.734375 0.140625 C 2.710938 0.140625 1.929688 -0.179688 1.390625 -0.828125 C 0.859375 -1.472656 0.59375 -2.414062 0.59375 -3.65625 C 0.59375 -4.882812 0.859375 -5.820312 1.390625 -6.46875 C 1.929688 -7.113281 2.707031 -7.4375 3.71875 -7.4375 C 4.46875 -7.4375 5.085938 -7.242188 5.578125 -6.859375 C 6.066406 -6.472656 6.378906 -5.941406 6.515625 -5.265625 L 5.265625 -5.171875 C 5.203125 -5.566406 5.039062 -5.882812 4.78125 -6.125 C 4.519531 -6.363281 4.15625 -6.484375 3.6875 -6.484375 C 3.039062 -6.484375 2.570312 -6.269531 2.28125 -5.84375 C 2 -5.414062 1.859375 -4.695312 1.859375 -3.6875 Z M 1.859375 -3.6875 "/>
</g>
<g id="glyph-2-14">
<path d="M 2.140625 -6.0625 C 2.398438 -6.53125 2.710938 -6.875 3.078125 -7.09375 C 3.441406 -7.320312 3.910156 -7.4375 4.484375 -7.4375 C 5.273438 -7.4375 5.859375 -7.238281 6.234375 -6.84375 C 6.609375 -6.457031 6.796875 -5.800781 6.796875 -4.875 L 6.796875 0 L 5.578125 0 L 5.578125 -4.625 C 5.578125 -5.144531 5.523438 -5.53125 5.421875 -5.78125 C 5.328125 -6.03125 5.171875 -6.210938 4.953125 -6.328125 C 4.742188 -6.441406 4.445312 -6.5 4.0625 -6.5 C 3.488281 -6.5 3.03125 -6.300781 2.6875 -5.90625 C 2.34375 -5.507812 2.171875 -4.976562 2.171875 -4.3125 L 2.171875 0 L 0.953125 0 L 0.953125 -10.015625 L 2.171875 -10.015625 L 2.171875 -7.40625 C 2.171875 -7.132812 2.160156 -6.851562 2.140625 -6.5625 C 2.128906 -6.269531 2.125 -6.101562 2.125 -6.0625 Z M 2.140625 -6.0625 "/>
</g>
<g id="glyph-2-15">
<path d="M 5.953125 -2.15625 L 5.953125 0 L 4.796875 0 L 4.796875 -2.15625 L 0.3125 -2.15625 L 0.3125 -3.09375 L 4.671875 -9.515625 L 5.953125 -9.515625 L 5.953125 -3.109375 L 7.28125 -3.109375 L 7.28125 -2.15625 Z M 4.796875 -8.140625 C 4.785156 -8.117188 4.722656 -8 4.609375 -7.78125 C 4.492188 -7.570312 4.40625 -7.425781 4.34375 -7.34375 L 1.90625 -3.75 L 1.546875 -3.25 L 1.4375 -3.109375 L 4.796875 -3.109375 Z M 4.796875 -8.140625 "/>
</g>
<g id="glyph-2-16">
<path d="M 2.59375 -1.484375 L 2.59375 -0.34375 C 2.59375 0.132812 2.550781 0.53125 2.46875 0.84375 C 2.382812 1.164062 2.253906 1.472656 2.078125 1.765625 L 1.25 1.765625 C 1.664062 1.148438 1.875 0.5625 1.875 0 L 1.28125 0 L 1.28125 -1.484375 Z M 2.59375 -1.484375 "/>
</g>
<g id="glyph-2-17">
<path d="M 0.703125 0 L 0.703125 -0.859375 C 0.929688 -1.378906 1.207031 -1.84375 1.53125 -2.25 C 1.863281 -2.65625 2.210938 -3.019531 2.578125 -3.34375 C 2.941406 -3.664062 3.300781 -3.96875 3.65625 -4.25 C 4.019531 -4.53125 4.34375 -4.8125 4.625 -5.09375 C 4.914062 -5.375 5.148438 -5.664062 5.328125 -5.96875 C 5.503906 -6.269531 5.59375 -6.617188 5.59375 -7.015625 C 5.59375 -7.535156 5.4375 -7.9375 5.125 -8.21875 C 4.820312 -8.507812 4.398438 -8.65625 3.859375 -8.65625 C 3.335938 -8.65625 2.910156 -8.515625 2.578125 -8.234375 C 2.242188 -7.953125 2.046875 -7.554688 1.984375 -7.046875 L 0.75 -7.15625 C 0.84375 -7.925781 1.164062 -8.535156 1.71875 -8.984375 C 2.269531 -9.429688 2.984375 -9.65625 3.859375 -9.65625 C 4.816406 -9.65625 5.550781 -9.425781 6.0625 -8.96875 C 6.582031 -8.519531 6.84375 -7.878906 6.84375 -7.046875 C 6.84375 -6.679688 6.757812 -6.316406 6.59375 -5.953125 C 6.425781 -5.585938 6.175781 -5.222656 5.84375 -4.859375 C 5.507812 -4.492188 4.867188 -3.925781 3.921875 -3.15625 C 3.410156 -2.738281 3 -2.359375 2.6875 -2.015625 C 2.382812 -1.671875 2.164062 -1.34375 2.03125 -1.03125 L 7 -1.03125 L 7 0 Z M 0.703125 0 "/>
</g>
<g id="glyph-2-18">
<path d="M 7.15625 -4.765625 C 7.15625 -3.171875 6.875 -1.953125 6.3125 -1.109375 C 5.75 -0.273438 4.921875 0.140625 3.828125 0.140625 C 2.734375 0.140625 1.910156 -0.273438 1.359375 -1.109375 C 0.816406 -1.941406 0.546875 -3.160156 0.546875 -4.765625 C 0.546875 -6.398438 0.8125 -7.625 1.34375 -8.4375 C 1.875 -9.25 2.71875 -9.65625 3.875 -9.65625 C 4.988281 -9.65625 5.8125 -9.242188 6.34375 -8.421875 C 6.882812 -7.597656 7.15625 -6.378906 7.15625 -4.765625 Z M 5.921875 -4.765625 C 5.921875 -6.128906 5.757812 -7.117188 5.4375 -7.734375 C 5.125 -8.359375 4.601562 -8.671875 3.875 -8.671875 C 3.125 -8.671875 2.582031 -8.363281 2.25 -7.75 C 1.925781 -7.144531 1.765625 -6.148438 1.765625 -4.765625 C 1.765625 -3.410156 1.929688 -2.421875 2.265625 -1.796875 C 2.597656 -1.171875 3.125 -0.859375 3.84375 -0.859375 C 4.5625 -0.859375 5.085938 -1.175781 5.421875 -1.8125 C 5.753906 -2.457031 5.921875 -3.441406 5.921875 -4.765625 Z M 5.921875 -4.765625 "/>
</g>
<g id="glyph-2-19">
<path d="M 7 -8.53125 C 6.019531 -7.039062 5.328125 -5.875 4.921875 -5.03125 C 4.523438 -4.195312 4.226562 -3.367188 4.03125 -2.546875 C 3.832031 -1.722656 3.734375 -0.875 3.734375 0 L 2.46875 0 C 2.46875 -1.21875 2.722656 -2.5 3.234375 -3.84375 C 3.753906 -5.1875 4.613281 -6.734375 5.8125 -8.484375 L 0.703125 -8.484375 L 0.703125 -9.515625 L 7 -9.515625 Z M 7 -8.53125 "/>
</g>
</g>
</defs>
<rect x="-25.5" y="-5.7" width="306" height="68.4" fill="rgb(100%, 100%, 100%)" fill-opacity="1"/>
<path fill="none" stroke-width="2.133333" stroke-linecap="round" stroke-linejoin="round" stroke="rgb(10.196078%, 10.196078%, 10.196078%)" stroke-opacity="1" stroke-miterlimit="10" d="M 1.5 -52.5 L 253.5 -52.5 L 253.5 1.5 L 1.5 1.5 Z M 1.5 -52.5 "/>
<path fill-rule="nonzero" fill="rgb(10.196078%, 10.196078%, 10.196078%)" fill-opacity="1" d="M 15 42.75 L 42 42.75 L 42 45 L 15 45 Z M 15 42.75 "/>
<path fill-rule="nonzero" fill="rgb(10.196078%, 10.196078%, 10.196078%)" fill-opacity="1" d="M 17.25 40.5 L 39.75 40.5 L 39.75 42.75 L 17.25 42.75 Z M 17.25 40.5 "/>
<path fill-rule="nonzero" fill="rgb(10.196078%, 10.196078%, 10.196078%)" fill-opacity="1" d="M 18.75 38.25 L 38.25 38.25 L 38.25 40.5 L 18.75 40.5 Z M 18.75 38.25 "/>
<path fill-rule="nonzero" fill="rgb(10.196078%, 10.196078%, 10.196078%)" fill-opacity="1" d="M 21.75 18.75 L 35.25 18.75 L 35.25 29.25 L 21.75 29.25 Z M 21.75 18.75 "/>
<path fill-rule="nonzero" fill="rgb(10.196078%, 10.196078%, 10.196078%)" fill-opacity="1" d="M 21.75 29.25 L 21.757812 28.890625 L 21.789062 28.53125 L 21.835938 28.175781 L 21.902344 27.824219 L 21.988281 27.472656 L 22.089844 27.128906 L 22.214844 26.792969 L 22.351562 26.460938 L 22.511719 26.136719 L 22.683594 25.824219 L 22.875 25.519531 L 23.082031 25.222656 L 23.304688 24.941406 L 23.539062 24.671875 L 23.789062 24.414062 L 24.054688 24.171875 L 24.332031 23.941406 L 24.621094 23.726562 L 24.917969 23.527344 L 25.230469 23.34375 L 25.546875 23.179688 L 25.875 23.03125 L 26.210938 22.898438 L 26.550781 22.789062 L 26.898438 22.691406 L 27.25 22.617188 L 27.605469 22.558594 L 27.960938 22.523438 L 28.320312 22.503906 L 28.679688 22.503906 L 29.039062 22.523438 L 29.394531 22.558594 L 29.75 22.617188 L 30.101562 22.691406 L 30.449219 22.789062 L 30.789062 22.898438 L 31.125 23.03125 L 31.453125 23.179688 L 31.769531 23.34375 L 32.082031 23.527344 L 32.378906 23.726562 L 32.667969 23.941406 L 32.945312 24.171875 L 33.210938 24.414062 L 33.460938 24.671875 L 33.695312 24.941406 L 33.917969 25.222656 L 34.125 25.519531 L 34.316406 25.824219 L 34.488281 26.136719 L 34.648438 26.460938 L 34.785156 26.792969 L 34.910156 27.128906 L 35.011719 27.472656 L 35.097656 27.824219 L 35.164062 28.175781 L 35.210938 28.53125 L 35.242188 28.890625 L 35.25 29.25 Z M 21.75 29.25 "/>
<path fill="none" stroke-width="2.133333" stroke-linecap="round" stroke-linejoin="round" stroke="rgb(10.196078%, 10.196078%, 10.196078%)" stroke-opacity="1" stroke-miterlimit="10" d="M 28.5 18.75 L 28.5 22.5 "/>
<g fill="rgb(10.196078%, 10.196078%, 10.196078%)" fill-opacity="1">
<use xlink:href="#glyph-0-1" x="58.5" y="16.5"/>
<use xlink:href="#glyph-0-2" x="70.28125" y="16.5"/>
<use xlink:href="#glyph-0-3" x="80.390625" y="16.5"/>
<use xlink:href="#glyph-0-2" x="91.34375" y="16.5"/>
<use xlink:href="#glyph-0-4" x="101.453125" y="16.5"/>
<use xlink:href="#glyph-0-5" x="112.40625" y="16.5"/>
<use xlink:href="#glyph-0-6" x="123.359375" y="16.5"/>
<use xlink:href="#glyph-0-7" x="132.34375" y="16.5"/>
<use xlink:href="#glyph-0-3" x="136.546875" y="16.5"/>
<use xlink:href="#glyph-0-8" x="147.5" y="16.5"/>
<use xlink:href="#glyph-0-9" x="159.28125" y="16.5"/>
<use xlink:href="#glyph-0-5" x="167.421875" y="16.5"/>
<use xlink:href="#glyph-0-4" x="178.375" y="16.5"/>
<use xlink:href="#glyph-0-10" x="188.765625" y="16.5"/>
</g>
<g fill="rgb(10.196078%, 10.196078%, 10.196078%)" fill-opacity="1">
<use xlink:href="#glyph-1-1" x="58.5" y="30"/>
<use xlink:href="#glyph-1-2" x="73.34375" y="30"/>
<use xlink:href="#glyph-1-3" x="78.296875" y="30"/>
<use xlink:href="#glyph-1-4" x="83.25" y="30"/>
<use xlink:href="#glyph-1-5" x="96.125" y="30"/>
<use xlink:href="#glyph-1-6" x="110" y="30"/>
<use xlink:href="#glyph-1-7" x="121.890625" y="30"/>
<use xlink:href="#glyph-1-8" x="132.78125" y="30"/>
</g>
<g fill="rgb(10.196078%, 10.196078%, 10.196078%)" fill-opacity="1">
<use xlink:href="#glyph-2-1" x="58.5" y="43.5"/>
<use xlink:href="#glyph-2-2" x="70.015625" y="43.5"/>
<use xlink:href="#glyph-2-3" x="76.9375" y="43.5"/>
<use xlink:href="#glyph-2-4" x="80.78125" y="43.5"/>
<use xlink:href="#glyph-2-5" x="90.765625" y="43.5"/>
<use xlink:href="#glyph-2-6" x="98.453125" y="43.5"/>
<use xlink:href="#glyph-2-6" x="109.96875" y="43.5"/>
<use xlink:href="#glyph-2-7" x="121.484375" y="43.5"/>
<use xlink:href="#glyph-2-3" x="125.328125" y="43.5"/>
<use xlink:href="#glyph-2-8" x="129.171875" y="43.5"/>
<use xlink:href="#glyph-2-9" x="138.390625" y="43.5"/>
<use xlink:href="#glyph-2-10" x="145.3125" y="43.5"/>
<use xlink:href="#glyph-2-7" x="153" y="43.5"/>
<use xlink:href="#glyph-2-3" x="156.84375" y="43.5"/>
<use xlink:href="#glyph-2-1" x="160.6875" y="43.5"/>
<use xlink:href="#glyph-2-11" x="172.203125" y="43.5"/>
<use xlink:href="#glyph-2-12" x="179.890625" y="43.5"/>
<use xlink:href="#glyph-2-13" x="184.5" y="43.5"/>
<use xlink:href="#glyph-2-14" x="191.421875" y="43.5"/>
<use xlink:href="#glyph-2-3" x="199.109375" y="43.5"/>
<use xlink:href="#glyph-2-15" x="202.953125" y="43.5"/>
<use xlink:href="#glyph-2-16" x="210.640625" y="43.5"/>
<use xlink:href="#glyph-2-3" x="214.484375" y="43.5"/>
<use xlink:href="#glyph-2-17" x="218.328125" y="43.5"/>
<use xlink:href="#glyph-2-18" x="226.015625" y="43.5"/>
<use xlink:href="#glyph-2-17" x="233.703125" y="43.5"/>
<use xlink:href="#glyph-2-19" x="241.390625" y="43.5"/>
</g>
</svg>
